<svg version="1.2" baseProfile="tiny-ps" xmlns="http://www.w3.org/2000/svg" viewBox="0 0 3374 650" width="3374" height="650">
	<title>New Project</title>
	<style>
		tspan { white-space:pre }
		.shp0 { opacity: 0.659;fill-opacity: 0.8;fill: #86e3ff } 
		.shp1 { fill: #86e3ff } 
		.shp2 { opacity: 0.659;fill: #86e3ff } 
	</style>
	<path id="Shape 1" class="shp0" d="M790.78 481.37L777.22 474.72L775.1 459.18C774.99 458.26 774.66 457.7 774.09 457.52C773.52 457.35 772.93 457.61 772.32 458.31L761.68 469.83L746.75 467.52C745.64 467.37 744.97 467.66 744.74 468.39C744.6 468.81 744.69 469.36 745 470.04L752.01 483.82L744.89 497.92C744.77 498.19 744.69 498.38 744.65 498.5C744.52 498.92 744.51 499.3 744.61 499.65C744.72 500 744.97 500.24 745.37 500.36C745.71 500.47 746.13 500.47 746.62 500.36L761.56 497.35L772.09 508.37C772.41 508.74 772.75 508.97 773.11 509.09C773.49 509.21 773.82 509.15 774.11 508.93C774.4 508.7 774.61 508.38 774.74 507.97C774.82 507.71 774.88 507.51 774.9 507.36L777.14 491.72L790.75 484.43C791.4 484.07 791.8 483.68 791.94 483.24C792.17 482.51 791.78 481.88 790.78 481.37L790.78 481.37Z" />
	<path id="Shape 2" class="shp1" d="M934.28 570.29L918.9 567.94L912 553.32C911.61 552.44 911.11 552 910.5 552C909.89 552 909.39 552.44 909 553.32L902.1 567.94L886.72 570.29C885.57 570.48 885 570.97 885 571.76C885 572.21 885.26 572.73 885.77 573.31L896.92 584.68L894.29 600.75C894.25 601.05 894.23 601.26 894.23 601.39C894.23 601.84 894.33 602.22 894.55 602.53C894.76 602.84 895.08 603 895.51 603C895.88 603 896.29 602.87 896.74 602.61L910.5 595.03L924.26 602.61C924.69 602.87 925.1 603 925.49 603C925.9 603 926.21 602.84 926.42 602.53C926.64 602.22 926.74 601.84 926.74 601.39C926.74 601.11 926.73 600.9 926.71 600.75L924.08 584.68L935.2 573.31C935.73 572.75 936 572.24 936 571.76C936 570.97 935.43 570.48 934.28 570.29L934.28 570.29Z" />
	<path id="Shape 3" class="shp1" d="M955.99 487.76L946.94 486.38L942.88 477.78C942.65 477.26 942.36 477 942 477C941.64 477 941.34 477.26 941.12 477.78L937.06 486.38L928.01 487.76C927.34 487.87 927 488.16 927 488.63C927 488.89 927.15 489.19 927.45 489.53L934.01 496.22L932.46 505.68C932.44 505.85 932.43 505.98 932.43 506.05C932.43 506.32 932.49 506.54 932.62 506.73C932.74 506.91 932.93 507 933.18 507C933.4 507 933.64 506.92 933.91 506.77L942 502.31L950.09 506.77C950.35 506.92 950.59 507 950.82 507C951.06 507 951.24 506.91 951.37 506.73C951.49 506.54 951.56 506.32 951.56 506.05C951.56 505.89 951.55 505.76 951.54 505.68L949.99 496.22L956.53 489.53C956.84 489.21 957 488.9 957 488.63C957 488.16 956.66 487.87 955.99 487.76L955.99 487.76Z" />
	<path id="Shape 4" class="shp2" d="M1082.47 537.31L1074.57 528.8L1077.33 517.05C1077.51 516.36 1077.42 515.87 1077.06 515.59C1076.7 515.3 1076.21 515.33 1075.57 515.66L1064.76 521L1054.68 515.23C1053.92 514.81 1053.36 514.83 1052.99 515.3C1052.78 515.56 1052.69 515.98 1052.72 516.55L1053.96 528.38L1044.96 536.54C1044.8 536.7 1044.69 536.81 1044.63 536.89C1044.42 537.15 1044.3 537.42 1044.29 537.7C1044.27 537.99 1044.38 538.23 1044.63 538.43C1044.85 538.6 1045.15 538.71 1045.53 538.77L1057.09 540.73L1061.61 551.54C1061.74 551.89 1061.92 552.16 1062.15 552.34C1062.38 552.53 1062.64 552.58 1062.91 552.5C1063.18 552.42 1063.42 552.25 1063.63 551.98C1063.75 551.82 1063.85 551.69 1063.91 551.59L1069.82 540.98L1081.6 539.5C1082.17 539.42 1082.57 539.24 1082.79 538.97C1083.15 538.51 1083.05 537.95 1082.47 537.31L1082.47 537.31Z" />
	<path id="Shape 5" class="shp1" d="M697.89 407.83L687.93 406.31L683.47 396.85C683.22 396.28 682.9 396 682.5 396C682.1 396 681.78 396.28 681.53 396.85L677.07 406.31L667.11 407.83C666.37 407.96 666 408.28 666 408.79C666 409.08 666.17 409.41 666.5 409.79L673.71 417.15L672.01 427.54C671.98 427.74 671.97 427.88 671.97 427.96C671.97 428.25 672.04 428.5 672.18 428.7C672.32 428.9 672.52 429 672.8 429C673.04 429 673.3 428.92 673.6 428.75L682.5 423.84L691.4 428.75C691.68 428.92 691.95 429 692.2 429C692.46 429 692.66 428.9 692.8 428.7C692.94 428.5 693.01 428.25 693.01 427.96C693.01 427.78 693 427.64 692.99 427.54L691.29 417.15L698.48 409.79C698.83 409.43 699 409.09 699 408.79C699 408.28 698.63 407.96 697.89 407.83L697.89 407.83Z" />
	<path id="Shape 6" class="shp2" d="M733.49 585.42L719.91 583.44L713.83 571.11C713.48 570.37 713.04 570 712.5 570C711.96 570 711.52 570.37 711.17 571.11L705.09 583.44L691.51 585.42C690.5 585.58 690 586 690 586.66C690 587.04 690.23 587.48 690.68 587.96L700.52 597.56L698.19 611.1C698.16 611.36 698.14 611.54 698.14 611.65C698.14 612.02 698.23 612.35 698.42 612.61C698.61 612.87 698.9 613 699.28 613C699.6 613 699.96 612.89 700.36 612.67L712.5 606.28L724.64 612.67C725.02 612.89 725.38 613 725.72 613C726.08 613 726.36 612.87 726.55 612.61C726.74 612.35 726.83 612.02 726.83 611.65C726.83 611.41 726.82 611.23 726.81 611.1L724.48 597.56L734.3 587.96C734.77 587.49 735 587.06 735 586.66C735 586 734.5 585.58 733.49 585.42L733.49 585.42Z" />
	<path id="Shape 7" class="shp1" d="M1227.28 499.28L1214.05 504.73L1201.7 496.48C1200.97 495.98 1200.37 495.87 1199.89 496.16C1199.41 496.45 1199.22 497.03 1199.33 497.91L1200.83 512.69L1189.83 521.82C1189.02 522.52 1188.8 523.18 1189.18 523.8C1189.39 524.16 1189.84 524.44 1190.51 524.65L1204.69 528.32L1210.23 542.22C1210.33 542.48 1210.42 542.66 1210.48 542.76C1210.69 543.11 1210.96 543.36 1211.28 543.5C1211.59 543.64 1211.92 543.61 1212.26 543.41C1212.55 543.24 1212.81 542.94 1213.04 542.53L1220.28 530.03L1234.71 529.48C1235.17 529.48 1235.55 529.39 1235.85 529.21C1236.18 529.01 1236.35 528.74 1236.37 528.4C1236.39 528.05 1236.3 527.7 1236.08 527.35C1235.95 527.13 1235.84 526.96 1235.75 526.86L1226.06 515.45L1229.43 501.23C1229.59 500.54 1229.55 500.01 1229.33 499.63C1228.95 499.01 1228.27 498.89 1227.28 499.28L1227.28 499.28Z" />
	<path id="Shape 8" class="shp1" d="M1198.79 600.19L1187.93 598.63L1183.06 588.88C1182.79 588.29 1182.43 588 1182 588C1181.57 588 1181.21 588.29 1180.94 588.88L1176.07 598.63L1165.21 600.19C1164.4 600.32 1164 600.65 1164 601.18C1164 601.48 1164.18 601.82 1164.54 602.2L1172.42 609.79L1170.56 620.5C1170.53 620.7 1170.51 620.84 1170.51 620.93C1170.51 621.23 1170.59 621.48 1170.74 621.69C1170.89 621.9 1171.12 622 1171.42 622C1171.68 622 1171.97 621.91 1172.29 621.74L1182 616.69L1191.71 621.74C1192.02 621.91 1192.31 622 1192.58 622C1192.87 622 1193.09 621.9 1193.24 621.69C1193.39 621.48 1193.47 621.23 1193.47 620.93C1193.47 620.74 1193.46 620.6 1193.44 620.5L1191.58 609.79L1199.44 602.2C1199.81 601.83 1200 601.49 1200 601.18C1200 600.65 1199.6 600.32 1198.79 600.19L1198.79 600.19Z" />
	<path id="Shape 9" class="shp2" d="M1351.59 552.06L1338.92 550.13L1333.24 538.09C1332.92 537.36 1332.5 537 1332 537C1331.5 537 1331.08 537.36 1330.76 538.09L1325.08 550.13L1312.41 552.06C1311.47 552.22 1311 552.62 1311 553.28C1311 553.65 1311.21 554.07 1311.63 554.55L1320.82 563.91L1318.65 577.15C1318.61 577.39 1318.6 577.57 1318.6 577.68C1318.6 578.05 1318.69 578.36 1318.86 578.62C1319.04 578.87 1319.3 579 1319.66 579C1319.96 579 1320.3 578.89 1320.67 578.68L1332 572.44L1343.33 578.68C1343.69 578.89 1344.02 579 1344.34 579C1344.68 579 1344.94 578.87 1345.11 578.62C1345.29 578.36 1345.38 578.05 1345.38 577.68C1345.38 577.45 1345.37 577.27 1345.35 577.15L1343.18 563.91L1352.34 554.55C1352.78 554.09 1353 553.66 1353 553.28C1353 552.62 1352.53 552.22 1351.59 552.06L1351.59 552.06Z" />
	<path id="Shape 10" class="shp1" d="M1532.1 523.77L1521.48 517.37L1520.83 504.5C1520.81 503.73 1520.58 503.26 1520.13 503.07C1519.67 502.89 1519.17 503.06 1518.62 503.59L1509.1 512.27L1497.05 509.33C1496.15 509.12 1495.58 509.31 1495.34 509.89C1495.2 510.22 1495.23 510.68 1495.43 511.26L1500.2 523.03L1493.38 534.07C1493.26 534.28 1493.18 534.43 1493.14 534.53C1493 534.86 1492.97 535.17 1493.03 535.46C1493.09 535.76 1493.28 535.97 1493.6 536.1C1493.87 536.21 1494.21 536.24 1494.62 536.19L1507.06 534.78L1514.9 544.54C1515.14 544.86 1515.4 545.08 1515.69 545.2C1515.99 545.32 1516.26 545.3 1516.52 545.14C1516.77 544.98 1516.96 544.73 1517.1 544.4C1517.18 544.19 1517.24 544.03 1517.27 543.92L1520.21 531.28L1531.86 526.27C1532.42 526.02 1532.77 525.72 1532.92 525.38C1533.16 524.79 1532.88 524.26 1532.1 523.77L1532.1 523.77Z" />
	<path id="Shape 11" class="shp2" d="M1409.19 494.6L1401.95 493.5L1398.71 486.62C1398.52 486.21 1398.29 486 1398 486C1397.71 486 1397.48 486.21 1397.29 486.62L1394.05 493.5L1386.81 494.6C1386.27 494.7 1386 494.93 1386 495.3C1386 495.51 1386.12 495.75 1386.36 496.03L1391.61 501.38L1390.37 508.94C1390.35 509.08 1390.34 509.18 1390.34 509.24C1390.34 509.46 1390.39 509.63 1390.49 509.78C1390.59 509.93 1390.75 510 1390.95 510C1391.12 510 1391.31 509.94 1391.52 509.82L1398 506.25L1404.48 509.82C1404.68 509.94 1404.87 510 1405.05 510C1405.25 510 1405.39 509.93 1405.49 509.78C1405.59 509.63 1405.64 509.46 1405.64 509.24C1405.64 509.11 1405.64 509.01 1405.63 508.94L1404.39 501.38L1409.63 496.03C1409.87 495.76 1410 495.52 1410 495.3C1410 494.93 1409.73 494.7 1409.19 494.6L1409.19 494.6Z" />
	<path id="Shape 12" class="shp1" d="M1625.16 572.33L1610.13 577.41L1597.04 567.39C1596.27 566.78 1595.62 566.62 1595.06 566.9C1594.51 567.19 1594.26 567.82 1594.32 568.8L1594.92 585.27L1582.08 594.6C1581.13 595.31 1580.85 596.03 1581.22 596.74C1581.43 597.15 1581.9 597.5 1582.63 597.78L1598.07 602.86L1603.2 618.65C1603.3 618.94 1603.39 619.14 1603.45 619.26C1603.66 619.67 1603.93 619.96 1604.27 620.14C1604.61 620.32 1604.98 620.31 1605.36 620.11C1605.7 619.94 1606.01 619.63 1606.29 619.19L1615.21 605.88L1631.22 606.3C1631.73 606.34 1632.16 606.26 1632.51 606.08C1632.88 605.89 1633.09 605.6 1633.14 605.22C1633.19 604.84 1633.11 604.44 1632.9 604.04C1632.77 603.78 1632.66 603.59 1632.57 603.47L1622.66 590.15L1627.41 574.64C1627.63 573.88 1627.63 573.29 1627.41 572.86C1627.04 572.15 1626.29 571.97 1625.16 572.33L1625.16 572.33Z" />
	<path id="Shape 13" class="shp2" d="M1750.49 523.49L1736.91 521.38L1730.83 508.19C1730.48 507.4 1730.04 507 1729.5 507C1728.96 507 1728.52 507.4 1728.17 508.19L1722.09 521.38L1708.51 523.49C1707.5 523.67 1707 524.11 1707 524.83C1707 525.23 1707.23 525.7 1707.68 526.22L1717.52 536.48L1715.19 550.97C1715.16 551.24 1715.14 551.43 1715.14 551.55C1715.14 551.96 1715.23 552.3 1715.42 552.58C1715.61 552.86 1715.9 553 1716.28 553C1716.6 553 1716.96 552.88 1717.36 552.65L1729.5 545.81L1741.64 552.65C1742.02 552.88 1742.38 553 1742.72 553C1743.08 553 1743.36 552.86 1743.55 552.58C1743.74 552.3 1743.83 551.96 1743.83 551.55C1743.83 551.3 1743.82 551.11 1743.81 550.97L1741.48 536.48L1751.3 526.22C1751.77 525.72 1752 525.25 1752 524.83C1752 524.11 1751.5 523.67 1750.49 523.49L1750.49 523.49Z" />
	<path id="Shape 14" class="shp2" d="M1818.01 605.56L1801.97 600.63L1796.92 583.94C1796.64 582.94 1796.18 582.39 1795.53 582.3C1794.87 582.2 1794.27 582.59 1793.72 583.46L1784.05 597.97L1767.27 598.05C1766.01 598.07 1765.33 598.51 1765.2 599.35C1765.13 599.83 1765.32 600.42 1765.78 601.12L1775.88 615.02L1770.53 631.74C1770.44 632.06 1770.39 632.28 1770.37 632.42C1770.3 632.9 1770.35 633.32 1770.53 633.69C1770.71 634.05 1771.03 634.27 1771.49 634.34C1771.88 634.4 1772.33 634.32 1772.85 634.12L1788.73 628.2L1802.22 638.46C1802.63 638.81 1803.05 639.01 1803.46 639.07C1803.9 639.13 1804.26 639.02 1804.53 638.72C1804.81 638.42 1804.99 638.03 1805.06 637.55C1805.1 637.26 1805.12 637.03 1805.13 636.86L1804.85 619.31L1818.52 608.93C1819.17 608.42 1819.53 607.91 1819.61 607.41C1819.73 606.56 1819.2 605.94 1818.01 605.56L1818.01 605.56Z" />
	<path id="Shape 15" class="shp1" d="M1466.09 615.68L1457.95 614.44L1454.3 606.7C1454.09 606.23 1453.82 606 1453.5 606C1453.18 606 1452.91 606.23 1452.7 606.7L1449.05 614.44L1440.91 615.68C1440.3 615.78 1440 616.04 1440 616.46C1440 616.7 1440.14 616.97 1440.41 617.28L1446.31 623.3L1444.92 631.81C1444.89 631.97 1444.88 632.08 1444.88 632.15C1444.88 632.39 1444.94 632.59 1445.05 632.75C1445.17 632.92 1445.34 633 1445.57 633C1445.76 633 1445.98 632.93 1446.21 632.8L1453.5 628.78L1460.79 632.8C1461.01 632.93 1461.23 633 1461.43 633C1461.65 633 1461.82 632.92 1461.93 632.75C1462.04 632.59 1462.1 632.39 1462.1 632.15C1462.1 632 1462.09 631.89 1462.08 631.81L1460.69 623.3L1466.58 617.28C1466.86 616.98 1467 616.71 1467 616.46C1467 616.04 1466.7 615.78 1466.09 615.68L1466.09 615.68Z" />
	<path id="Shape 16" class="shp1" d="M1914.29 512.8L1898.97 505.96L1895.98 488.79C1895.83 487.76 1895.43 487.16 1894.8 486.99C1894.16 486.81 1893.51 487.12 1892.86 487.93L1881.5 501.16L1864.83 499.19C1863.59 499.07 1862.85 499.41 1862.63 500.24C1862.5 500.71 1862.62 501.31 1862.98 502.06L1871.33 517.08L1863.99 533.04C1863.86 533.34 1863.78 533.55 1863.74 533.69C1863.61 534.15 1863.61 534.58 1863.75 534.96C1863.88 535.35 1864.17 535.6 1864.62 535.73C1865 535.83 1865.46 535.81 1866 535.68L1882.48 531.73L1894.62 543.55C1894.99 543.94 1895.38 544.19 1895.79 544.3C1896.21 544.42 1896.58 544.35 1896.89 544.09C1897.2 543.82 1897.42 543.46 1897.55 542.99C1897.63 542.7 1897.68 542.48 1897.71 542.31L1899.56 524.85L1914.39 516.21C1915.1 515.78 1915.52 515.32 1915.66 514.83C1915.88 514.01 1915.43 513.33 1914.29 512.8L1914.29 512.8Z" />
	<path id="Shape 17" class="shp2" d="M2008.89 452.83L1998.93 451.31L1994.47 441.85C1994.22 441.28 1993.9 441 1993.5 441C1993.1 441 1992.78 441.28 1992.53 441.85L1988.07 451.31L1978.11 452.83C1977.37 452.96 1977 453.28 1977 453.79C1977 454.08 1977.17 454.41 1977.5 454.79L1984.71 462.15L1983.01 472.54C1982.98 472.74 1982.97 472.88 1982.97 472.96C1982.97 473.25 1983.04 473.5 1983.18 473.7C1983.32 473.9 1983.52 474 1983.8 474C1984.04 474 1984.3 473.92 1984.6 473.75L1993.5 468.84L2002.4 473.75C2002.68 473.92 2002.95 474 2003.2 474C2003.46 474 2003.66 473.9 2003.8 473.7C2003.94 473.5 2004.01 473.25 2004.01 472.96C2004.01 472.78 2004 472.64 2003.99 472.54L2002.29 462.15L2009.48 454.79C2009.83 454.43 2010 454.09 2010 453.79C2010 453.28 2009.63 452.96 2008.89 452.83L2008.89 452.83Z" />
	<path id="Shape 18" class="shp1" d="M2150.15 394.72L2133.56 392.19L2126.12 376.42C2125.7 375.47 2125.16 375 2124.5 375C2123.84 375 2123.3 375.47 2122.88 376.42L2115.44 392.19L2098.85 394.72C2097.62 394.93 2097 395.46 2097 396.31C2097 396.8 2097.28 397.35 2097.83 397.98L2109.86 410.25L2107.02 427.57C2106.97 427.9 2106.95 428.13 2106.95 428.27C2106.95 428.75 2107.06 429.16 2107.3 429.5C2107.53 429.83 2107.87 430 2108.34 430C2108.73 430 2109.17 429.86 2109.66 429.58L2124.5 421.41L2139.34 429.58C2139.8 429.86 2140.24 430 2140.66 430C2141.1 430 2141.44 429.83 2141.67 429.5C2141.9 429.16 2142.02 428.75 2142.02 428.27C2142.02 427.97 2142.01 427.74 2141.98 427.57L2139.14 410.25L2151.14 397.98C2151.71 397.38 2152 396.82 2152 396.31C2152 395.46 2151.38 394.93 2150.15 394.72L2150.15 394.72Z" />
	<path id="Shape 19" class="shp1" d="M2260.69 325.98L2248.92 324.19L2243.65 313.01C2243.35 312.34 2242.97 312 2242.5 312C2242.03 312 2241.65 312.34 2241.35 313.01L2236.08 324.19L2224.31 325.98C2223.44 326.13 2223 326.51 2223 327.11C2223 327.46 2223.2 327.85 2223.59 328.29L2232.12 336.99L2230.1 349.28C2230.07 349.51 2230.05 349.67 2230.05 349.77C2230.05 350.12 2230.14 350.41 2230.3 350.64C2230.46 350.88 2230.71 351 2231.04 351C2231.32 351 2231.63 350.9 2231.98 350.71L2242.5 344.91L2253.02 350.71C2253.35 350.9 2253.66 351 2253.96 351C2254.27 351 2254.51 350.88 2254.68 350.64C2254.84 350.41 2254.92 350.12 2254.92 349.77C2254.92 349.56 2254.91 349.39 2254.9 349.28L2252.88 336.99L2261.39 328.29C2261.8 327.87 2262 327.47 2262 327.11C2262 326.51 2261.56 326.13 2260.69 325.98L2260.69 325.98Z" />
	<path id="Shape 20" class="shp2" d="M2390.94 316.41L2376.4 301.19L2381.08 279.83C2381.39 278.57 2381.22 277.68 2380.56 277.18C2379.91 276.67 2379.01 276.73 2377.87 277.35L2358.4 287.32L2339.97 277.12C2338.59 276.39 2337.57 276.44 2336.91 277.29C2336.54 277.77 2336.39 278.53 2336.46 279.58L2339.02 300.98L2322.92 316.02C2322.63 316.31 2322.43 316.52 2322.33 316.66C2321.95 317.14 2321.75 317.64 2321.73 318.15C2321.7 318.66 2321.92 319.09 2322.38 319.44C2322.77 319.75 2323.32 319.95 2324.01 320.04L2345.02 323.28L2353.5 342.78C2353.75 343.41 2354.08 343.88 2354.5 344.2C2354.93 344.54 2355.4 344.63 2355.88 344.48C2356.37 344.32 2356.8 344 2357.17 343.52C2357.4 343.22 2357.57 342.98 2357.67 342.81L2368.12 323.41L2389.43 320.41C2390.46 320.25 2391.17 319.92 2391.56 319.42C2392.22 318.57 2392.01 317.57 2390.94 316.41L2390.94 316.41Z" />
	<path id="Shape 21" class="shp2" d="M2473.99 220.76L2464.94 219.38L2460.88 210.78C2460.65 210.26 2460.36 210 2460 210C2459.64 210 2459.34 210.26 2459.12 210.78L2455.06 219.38L2446.01 220.76C2445.34 220.87 2445 221.16 2445 221.63C2445 221.89 2445.15 222.19 2445.45 222.53L2452.01 229.22L2450.46 238.68C2450.44 238.85 2450.43 238.98 2450.43 239.05C2450.43 239.32 2450.49 239.54 2450.62 239.73C2450.74 239.91 2450.93 240 2451.18 240C2451.4 240 2451.64 239.92 2451.91 239.77L2460 235.31L2468.09 239.77C2468.35 239.92 2468.59 240 2468.82 240C2469.06 240 2469.24 239.91 2469.37 239.73C2469.49 239.54 2469.56 239.32 2469.56 239.05C2469.56 238.89 2469.55 238.76 2469.54 238.68L2467.99 229.22L2474.53 222.53C2474.84 222.21 2475 221.9 2475 221.63C2475 221.16 2474.66 220.87 2473.99 220.76L2473.99 220.76Z" />
	<path id="Shape 22" class="shp1" d="M2573.38 189.59L2560.33 182.94L2558.49 167.84C2558.41 166.94 2558.09 166.4 2557.54 166.22C2556.99 166.03 2556.42 166.28 2555.81 166.95L2545.32 177.97L2530.88 175.52C2529.8 175.35 2529.15 175.62 2528.91 176.33C2528.78 176.73 2528.86 177.27 2529.14 177.94L2535.74 191.4L2528.64 204.98C2528.51 205.23 2528.43 205.42 2528.39 205.54C2528.26 205.94 2528.24 206.31 2528.34 206.65C2528.44 206.99 2528.68 207.22 2529.07 207.35C2529.4 207.46 2529.8 207.47 2530.28 207.37L2544.82 204.66L2554.87 215.51C2555.18 215.87 2555.5 216.1 2555.85 216.22C2556.21 216.34 2556.54 216.29 2556.82 216.08C2557.11 215.86 2557.31 215.55 2557.45 215.15C2557.53 214.9 2557.58 214.71 2557.61 214.57L2560.01 199.43L2573.31 192.56C2573.95 192.22 2574.34 191.84 2574.48 191.42C2574.72 190.71 2574.35 190.1 2573.38 189.59L2573.38 189.59Z" />
	<path id="Shape 23" class="shp1" d="M2117.98 516.02L2103.26 506.19L2103.19 487.81C2103.21 486.72 2102.91 486.02 2102.28 485.73C2101.65 485.43 2100.92 485.64 2100.1 486.36L2085.95 498.11L2068.97 493.12C2067.7 492.76 2066.87 493 2066.49 493.81C2066.27 494.28 2066.29 494.93 2066.54 495.77L2072.55 512.86L2062.1 528.15C2061.91 528.44 2061.79 528.65 2061.73 528.78C2061.51 529.24 2061.44 529.69 2061.51 530.11C2061.58 530.53 2061.84 530.85 2062.28 531.06C2062.66 531.23 2063.14 531.3 2063.73 531.25L2081.56 530.06L2092.09 544.5C2092.4 544.97 2092.76 545.3 2093.16 545.49C2093.58 545.69 2093.98 545.68 2094.35 545.46C2094.72 545.24 2095.01 544.9 2095.23 544.44C2095.37 544.15 2095.46 543.93 2095.51 543.76L2100.53 525.94L2117.47 519.57C2118.29 519.26 2118.81 518.85 2119.03 518.37C2119.42 517.55 2119.06 516.77 2117.98 516.02L2117.98 516.02Z" />
	<path id="Shape 24" class="shp1" d="M1991.45 595.49L1977.57 593.38L1971.35 580.19C1971 579.4 1970.55 579 1970 579C1969.45 579 1969 579.4 1968.65 580.19L1962.43 593.38L1948.55 595.49C1947.52 595.67 1947 596.11 1947 596.83C1947 597.23 1947.23 597.7 1947.69 598.22L1957.75 608.48L1955.38 622.97C1955.34 623.24 1955.32 623.43 1955.32 623.55C1955.32 623.96 1955.42 624.3 1955.61 624.58C1955.8 624.86 1956.09 625 1956.48 625C1956.81 625 1957.18 624.88 1957.59 624.65L1970 617.81L1982.41 624.65C1982.8 624.88 1983.17 625 1983.52 625C1983.89 625 1984.17 624.86 1984.36 624.58C1984.55 624.3 1984.65 623.96 1984.65 623.55C1984.65 623.3 1984.64 623.11 1984.62 622.97L1982.25 608.48L1992.28 598.22C1992.76 597.72 1993 597.25 1993 596.83C1993 596.11 1992.48 595.67 1991.45 595.49L1991.45 595.49Z" />
	<path id="Shape 25" class="shp2" d="M2283.17 443.1L2268.17 437.94L2263.92 422.02C2263.69 421.06 2263.27 420.53 2262.65 420.42C2262.04 420.31 2261.46 420.66 2260.91 421.47L2251.32 434.88L2235.46 434.42C2234.27 434.41 2233.61 434.8 2233.47 435.59C2233.38 436.04 2233.55 436.61 2233.95 437.28L2243.07 450.73L2237.49 466.37C2237.4 466.66 2237.34 466.87 2237.31 467C2237.23 467.45 2237.27 467.85 2237.43 468.2C2237.59 468.55 2237.88 468.77 2238.31 468.85C2238.68 468.91 2239.11 468.86 2239.61 468.68L2254.8 463.59L2267.22 473.7C2267.61 474.04 2267.99 474.24 2268.38 474.31C2268.79 474.39 2269.13 474.29 2269.4 474.02C2269.68 473.75 2269.85 473.38 2269.94 472.93C2269.99 472.65 2270.02 472.44 2270.02 472.28L2270.31 455.68L2283.55 446.3C2284.18 445.84 2284.54 445.37 2284.63 444.9C2284.77 444.1 2284.29 443.5 2283.17 443.1L2283.17 443.1Z" />
	<path id="Shape 26" class="shp1" d="M2530.95 400.11L2511.14 392.99L2505.79 371.79C2505.5 370.52 2504.95 369.8 2504.14 369.64C2503.33 369.49 2502.55 369.94 2501.8 371L2488.84 388.62L2467.8 387.73C2466.23 387.69 2465.34 388.19 2465.14 389.24C2465.02 389.84 2465.23 390.59 2465.75 391.49L2477.6 409.5L2469.92 430.15C2469.79 430.53 2469.71 430.81 2469.67 430.98C2469.55 431.58 2469.6 432.11 2469.8 432.58C2470.01 433.05 2470.39 433.34 2470.96 433.45C2471.45 433.55 2472.03 433.48 2472.69 433.26L2492.94 426.77L2509.23 440.43C2509.73 440.88 2510.24 441.16 2510.76 441.26C2511.3 441.36 2511.75 441.24 2512.12 440.88C2512.49 440.53 2512.73 440.05 2512.84 439.45C2512.92 439.08 2512.96 438.79 2512.97 438.59L2513.66 416.57L2531.39 404.36C2532.24 403.76 2532.73 403.15 2532.85 402.52C2533.05 401.47 2532.42 400.67 2530.95 400.11L2530.95 400.11Z" />
	<path id="Shape 27" class="shp1" d="M2554.49 289.13L2540.91 287.06L2534.83 274.16C2534.48 273.39 2534.04 273 2533.5 273C2532.96 273 2532.52 273.39 2532.17 274.16L2526.09 287.06L2512.51 289.13C2511.5 289.3 2511 289.74 2511 290.44C2511 290.84 2511.23 291.29 2511.68 291.8L2521.52 301.84L2519.19 316.02C2519.16 316.28 2519.14 316.47 2519.14 316.58C2519.14 316.98 2519.23 317.31 2519.42 317.59C2519.61 317.86 2519.9 318 2520.28 318C2520.6 318 2520.96 317.89 2521.36 317.66L2533.5 310.97L2545.64 317.66C2546.02 317.89 2546.38 318 2546.72 318C2547.08 318 2547.36 317.86 2547.55 317.59C2547.74 317.31 2547.83 316.98 2547.83 316.58C2547.83 316.34 2547.82 316.15 2547.81 316.02L2545.48 301.84L2555.3 291.8C2555.77 291.31 2556 290.85 2556 290.44C2556 289.74 2555.5 289.3 2554.49 289.13L2554.49 289.13Z" />
	<path id="Shape 28" class="shp1" d="M2379.3 540.42L2364.14 533.23L2361.55 515.99C2361.42 514.96 2361.04 514.35 2360.4 514.16C2359.77 513.97 2359.12 514.27 2358.44 515.06L2346.79 528.02L2330.17 525.68C2328.93 525.52 2328.18 525.85 2327.94 526.67C2327.8 527.14 2327.9 527.75 2328.25 528.5L2336.25 543.71L2328.55 559.49C2328.41 559.79 2328.32 560 2328.28 560.14C2328.14 560.6 2328.14 561.03 2328.26 561.41C2328.39 561.8 2328.67 562.06 2329.12 562.19C2329.5 562.31 2329.96 562.3 2330.5 562.18L2347.07 558.61L2358.93 570.71C2359.29 571.11 2359.68 571.36 2360.08 571.49C2360.5 571.61 2360.87 571.55 2361.19 571.29C2361.5 571.04 2361.73 570.68 2361.87 570.21C2361.96 569.93 2362.01 569.7 2362.04 569.54L2364.3 552.13L2379.32 543.83C2380.04 543.41 2380.47 542.97 2380.62 542.48C2380.86 541.66 2380.42 540.97 2379.3 540.42L2379.3 540.42Z" />
	<path id="Shape 29" class="shp1" d="M2372.29 406.53L2365.96 405.56L2363.12 399.54C2362.96 399.18 2362.75 399 2362.5 399C2362.25 399 2362.04 399.18 2361.88 399.54L2359.04 405.56L2352.71 406.53C2352.24 406.61 2352 406.81 2352 407.14C2352 407.32 2352.11 407.53 2352.32 407.77L2356.91 412.46L2355.82 419.07C2355.81 419.2 2355.8 419.29 2355.8 419.34C2355.8 419.52 2355.84 419.68 2355.93 419.81C2356.02 419.94 2356.15 420 2356.33 420C2356.48 420 2356.65 419.95 2356.83 419.84L2362.5 416.72L2368.17 419.84C2368.34 419.95 2368.51 420 2368.67 420C2368.84 420 2368.97 419.94 2369.06 419.81C2369.14 419.68 2369.19 419.52 2369.19 419.34C2369.19 419.22 2369.18 419.14 2369.18 419.07L2368.09 412.46L2372.67 407.77C2372.89 407.54 2373 407.33 2373 407.14C2373 406.81 2372.76 406.61 2372.29 406.53L2372.29 406.53Z" />
	<path id="Shape 30" class="shp2" d="M2192.25 582.64L2176.56 580.25L2169.53 565.34C2169.14 564.45 2168.62 564 2168 564C2167.38 564 2166.86 564.45 2166.47 565.34L2159.44 580.25L2143.75 582.64C2142.58 582.84 2142 583.34 2142 584.15C2142 584.61 2142.26 585.13 2142.78 585.72L2154.16 597.32L2151.47 613.71C2151.43 614.01 2151.41 614.23 2151.41 614.36C2151.41 614.82 2151.52 615.21 2151.73 615.52C2151.95 615.84 2152.28 616 2152.72 616C2153.09 616 2153.51 615.87 2153.97 615.61L2168 607.87L2182.03 615.61C2182.47 615.87 2182.89 616 2183.28 616C2183.7 616 2184.02 615.84 2184.23 615.52C2184.45 615.21 2184.56 614.82 2184.56 614.36C2184.56 614.08 2184.55 613.86 2184.53 613.71L2181.84 597.32L2193.19 585.72C2193.73 585.16 2194 584.63 2194 584.15C2194 583.34 2193.42 582.84 2192.25 582.64L2192.25 582.64Z" />
	<path id="Shape 31" class="shp1" d="M2567.45 523.49L2553.57 521.38L2547.35 508.19C2547 507.4 2546.55 507 2546 507C2545.45 507 2545 507.4 2544.65 508.19L2538.43 521.38L2524.55 523.49C2523.52 523.67 2523 524.11 2523 524.83C2523 525.23 2523.23 525.7 2523.69 526.22L2533.75 536.48L2531.38 550.97C2531.34 551.24 2531.32 551.43 2531.32 551.55C2531.32 551.96 2531.42 552.3 2531.61 552.58C2531.8 552.86 2532.09 553 2532.48 553C2532.81 553 2533.18 552.88 2533.59 552.65L2546 545.81L2558.41 552.65C2558.8 552.88 2559.17 553 2559.52 553C2559.89 553 2560.17 552.86 2560.36 552.58C2560.55 552.3 2560.65 551.96 2560.65 551.55C2560.65 551.3 2560.64 551.11 2560.62 550.97L2558.25 536.48L2568.28 526.22C2568.76 525.72 2569 525.25 2569 524.83C2569 524.11 2568.48 523.67 2567.45 523.49L2567.45 523.49Z" />
	<path id="Shape 32" class="shp2" d="M2460.16 581.96L2452.62 580.81L2449.24 573.65C2449.05 573.22 2448.8 573 2448.5 573C2448.2 573 2447.95 573.22 2447.76 573.65L2444.38 580.81L2436.84 581.96C2436.28 582.06 2436 582.3 2436 582.69C2436 582.91 2436.13 583.16 2436.38 583.44L2441.84 589.02L2440.55 596.9C2440.53 597.04 2440.52 597.15 2440.52 597.21C2440.52 597.43 2440.57 597.62 2440.68 597.77C2440.79 597.92 2440.94 598 2441.15 598C2441.33 598 2441.53 597.94 2441.75 597.81L2448.5 594.09L2455.25 597.81C2455.46 597.94 2455.66 598 2455.85 598C2456.05 598 2456.2 597.92 2456.3 597.77C2456.41 597.62 2456.46 597.43 2456.46 597.21C2456.46 597.08 2456.46 596.97 2456.45 596.9L2455.16 589.02L2460.61 583.44C2460.87 583.17 2461 582.92 2461 582.69C2461 582.3 2460.72 582.06 2460.16 581.96L2460.16 581.96Z" />
	<path id="Shape 33" class="shp1" d="M2713.99 100.51L2694.26 93.15L2689.16 71.88C2688.89 70.61 2688.35 69.89 2687.53 69.72C2686.72 69.56 2685.94 70 2685.18 71.06L2672.01 88.52L2650.99 87.38C2649.42 87.32 2648.53 87.82 2648.31 88.87C2648.18 89.46 2648.38 90.21 2648.9 91.12L2660.53 109.27L2652.61 129.82C2652.47 130.21 2652.39 130.49 2652.35 130.66C2652.23 131.25 2652.27 131.79 2652.46 132.26C2652.66 132.73 2653.05 133.02 2653.61 133.14C2654.1 133.24 2654.68 133.18 2655.34 132.97L2675.66 126.72L2691.8 140.56C2692.3 141.02 2692.8 141.3 2693.32 141.41C2693.86 141.52 2694.31 141.4 2694.68 141.05C2695.05 140.7 2695.3 140.22 2695.42 139.63C2695.5 139.26 2695.55 138.97 2695.56 138.77L2696.5 116.76L2714.38 104.76C2715.23 104.17 2715.73 103.56 2715.86 102.94C2716.08 101.89 2715.45 101.08 2713.99 100.51L2713.99 100.51Z" />
	<path id="Shape 34" class="shp1" d="M2738.45 295.49L2724.57 293.38L2718.35 280.19C2718 279.4 2717.55 279 2717 279C2716.45 279 2716 279.4 2715.65 280.19L2709.43 293.38L2695.55 295.49C2694.52 295.67 2694 296.11 2694 296.83C2694 297.23 2694.23 297.7 2694.69 298.22L2704.75 308.48L2702.38 322.97C2702.34 323.24 2702.32 323.43 2702.32 323.55C2702.32 323.96 2702.42 324.3 2702.61 324.58C2702.8 324.86 2703.09 325 2703.48 325C2703.81 325 2704.18 324.88 2704.59 324.65L2717 317.81L2729.41 324.65C2729.8 324.88 2730.17 325 2730.52 325C2730.89 325 2731.17 324.86 2731.36 324.58C2731.55 324.3 2731.65 323.96 2731.65 323.55C2731.65 323.3 2731.64 323.11 2731.62 322.97L2729.25 308.48L2739.28 298.22C2739.76 297.72 2740 297.25 2740 296.83C2740 296.11 2739.48 295.67 2738.45 295.49L2738.45 295.49Z" />
	<path id="Shape 35" class="shp2" d="M2663.45 427.49L2649.57 425.38L2643.35 412.19C2643 411.4 2642.55 411 2642 411C2641.45 411 2641 411.4 2640.65 412.19L2634.43 425.38L2620.55 427.49C2619.52 427.67 2619 428.11 2619 428.83C2619 429.23 2619.23 429.7 2619.69 430.22L2629.75 440.48L2627.38 454.97C2627.34 455.24 2627.32 455.43 2627.32 455.55C2627.32 455.96 2627.42 456.3 2627.61 456.58C2627.8 456.86 2628.09 457 2628.48 457C2628.81 457 2629.18 456.88 2629.59 456.65L2642 449.81L2654.41 456.65C2654.8 456.88 2655.17 457 2655.52 457C2655.89 457 2656.17 456.86 2656.36 456.58C2656.55 456.3 2656.65 455.96 2656.65 455.55C2656.65 455.3 2656.64 455.11 2656.62 454.97L2654.25 440.48L2664.28 430.22C2664.76 429.72 2665 429.25 2665 428.83C2665 428.11 2664.48 427.67 2663.45 427.49L2663.45 427.49Z" />
	<path id="Shape 36" class="shp1" d="M2929.28 303.29L2913.9 300.94L2907 286.32C2906.61 285.44 2906.11 285 2905.5 285C2904.89 285 2904.39 285.44 2904 286.32L2897.1 300.94L2881.72 303.29C2880.57 303.48 2880 303.97 2880 304.76C2880 305.21 2880.26 305.73 2880.77 306.31L2891.92 317.68L2889.29 333.75C2889.25 334.05 2889.23 334.26 2889.23 334.39C2889.23 334.84 2889.33 335.22 2889.55 335.53C2889.76 335.84 2890.08 336 2890.51 336C2890.88 336 2891.29 335.87 2891.74 335.61L2905.5 328.03L2919.26 335.61C2919.69 335.87 2920.1 336 2920.49 336C2920.9 336 2921.21 335.84 2921.42 335.53C2921.64 335.22 2921.74 334.84 2921.74 334.39C2921.74 334.11 2921.73 333.9 2921.71 333.75L2919.08 317.68L2930.2 306.31C2930.73 305.75 2931 305.24 2931 304.76C2931 303.97 2930.43 303.48 2929.28 303.29L2929.28 303.29Z" />
	<path id="Shape 37" class="shp1" d="M2906.31 169.74L2886.9 155.44L2887.98 130.42C2888.08 128.94 2887.71 127.97 2886.87 127.53C2886.03 127.09 2885.03 127.33 2883.86 128.26L2863.87 143.34L2841.08 135.47C2839.37 134.91 2838.23 135.18 2837.66 136.26C2837.34 136.88 2837.32 137.77 2837.6 138.93L2844.71 162.57L2829.52 182.7C2829.24 183.08 2829.06 183.36 2828.97 183.54C2828.65 184.16 2828.52 184.76 2828.59 185.34C2828.66 185.92 2828.99 186.36 2829.58 186.67C2830.08 186.94 2830.73 187.05 2831.54 187.03L2855.87 186.54L2869.28 206.85C2869.68 207.51 2870.15 207.99 2870.68 208.27C2871.24 208.56 2871.78 208.57 2872.3 208.3C2872.82 208.03 2873.24 207.58 2873.56 206.97C2873.76 206.58 2873.9 206.28 2873.98 206.06L2881.94 182.13L2905.4 174.55C2906.53 174.16 2907.26 173.65 2907.6 173C2908.17 171.92 2907.74 170.83 2906.31 169.74L2906.31 169.74Z" />
	<path id="Shape 38" class="shp2" d="M2836.59 492.06L2823.92 490.13L2818.24 478.09C2817.92 477.36 2817.5 477 2817 477C2816.5 477 2816.08 477.36 2815.76 478.09L2810.08 490.13L2797.41 492.06C2796.47 492.22 2796 492.62 2796 493.28C2796 493.65 2796.21 494.07 2796.63 494.55L2805.82 503.91L2803.65 517.15C2803.61 517.39 2803.6 517.57 2803.6 517.68C2803.6 518.05 2803.69 518.36 2803.86 518.62C2804.04 518.87 2804.3 519 2804.66 519C2804.96 519 2805.3 518.89 2805.67 518.68L2817 512.44L2828.33 518.68C2828.69 518.89 2829.02 519 2829.34 519C2829.68 519 2829.94 518.87 2830.11 518.62C2830.29 518.36 2830.38 518.05 2830.38 517.68C2830.38 517.45 2830.37 517.27 2830.35 517.15L2828.18 503.91L2837.34 494.55C2837.78 494.09 2838 493.66 2838 493.28C2838 492.62 2837.53 492.22 2836.59 492.06L2836.59 492.06Z" />
	<path id="Shape 39" class="shp1" d="M3055.69 430.98L3043.92 429.19L3038.65 418.01C3038.35 417.34 3037.97 417 3037.5 417C3037.03 417 3036.65 417.34 3036.35 418.01L3031.08 429.19L3019.31 430.98C3018.44 431.13 3018 431.51 3018 432.11C3018 432.46 3018.2 432.85 3018.59 433.29L3027.12 441.99L3025.1 454.28C3025.07 454.51 3025.05 454.67 3025.05 454.77C3025.05 455.12 3025.14 455.41 3025.3 455.64C3025.46 455.88 3025.71 456 3026.04 456C3026.32 456 3026.63 455.9 3026.98 455.71L3037.5 449.91L3048.02 455.71C3048.35 455.9 3048.66 456 3048.96 456C3049.27 456 3049.51 455.88 3049.68 455.64C3049.84 455.41 3049.92 455.12 3049.92 454.77C3049.92 454.56 3049.91 454.39 3049.9 454.28L3047.88 441.99L3056.39 433.29C3056.8 432.87 3057 432.47 3057 432.11C3057 431.51 3056.56 431.13 3055.69 430.98L3055.69 430.98Z" />
	<path id="Shape 40" class="shp1" d="M3183.98 246.51L3165.88 243.75L3157.77 226.55C3157.31 225.52 3156.72 225 3156 225C3155.28 225 3154.69 225.52 3154.23 226.55L3146.12 243.75L3128.02 246.51C3126.67 246.74 3126 247.32 3126 248.25C3126 248.78 3126.3 249.39 3126.9 250.07L3140.03 263.45L3136.93 282.35C3136.88 282.71 3136.85 282.96 3136.85 283.11C3136.85 283.64 3136.98 284.09 3137.23 284.45C3137.48 284.82 3137.86 285 3138.37 285C3138.8 285 3139.28 284.85 3139.81 284.55L3156 275.62L3172.19 284.55C3172.69 284.85 3173.18 285 3173.63 285C3174.11 285 3174.48 284.82 3174.73 284.45C3174.98 284.09 3175.11 283.64 3175.11 283.11C3175.11 282.78 3175.1 282.53 3175.07 282.35L3171.97 263.45L3185.06 250.07C3185.69 249.41 3186 248.81 3186 248.25C3186 247.32 3185.33 246.74 3183.98 246.51L3183.98 246.51ZM527.05 482.8L509.55 480.13L501.71 463.5C501.27 462.5 500.7 462 500 462C499.3 462 498.73 462.5 498.29 463.5L490.45 480.13L472.95 482.8C471.65 483.01 471 483.58 471 484.48C471 484.99 471.29 485.57 471.87 486.23L484.56 499.17L481.56 517.44C481.51 517.78 481.49 518.03 481.49 518.17C481.49 518.68 481.61 519.12 481.86 519.47C482.1 519.82 482.47 520 482.96 520C483.37 520 483.84 519.85 484.35 519.56L500 510.94L515.65 519.56C516.14 519.85 516.6 520 517.04 520C517.51 520 517.86 519.82 518.11 519.47C518.35 519.12 518.47 518.68 518.47 518.17C518.47 517.86 518.46 517.61 518.44 517.44L515.44 499.17L528.09 486.23C528.7 485.6 529 485.01 529 484.48C529 483.58 528.35 483.01 527.05 482.8L527.05 482.8Z" />
	<path id="Shape 41" class="shp1" d="M386.65 602.34L374.59 600.5L369.18 589.03C368.87 588.34 368.48 588 368 588C367.52 588 367.13 588.34 366.82 589.03L361.41 600.5L349.35 602.34C348.45 602.49 348 602.88 348 603.5C348 603.85 348.2 604.26 348.6 604.71L357.35 613.63L355.28 626.24C355.25 626.47 355.24 626.64 355.24 626.74C355.24 627.09 355.32 627.39 355.49 627.63C355.66 627.88 355.91 628 356.25 628C356.53 628 356.85 627.9 357.21 627.7L368 621.75L378.79 627.7C379.13 627.9 379.45 628 379.75 628C380.08 628 380.32 627.88 380.49 627.63C380.66 627.39 380.74 627.09 380.74 626.74C380.74 626.52 380.73 626.35 380.72 626.24L378.65 613.63L387.38 604.71C387.79 604.27 388 603.87 388 603.5C388 602.88 387.55 602.49 386.65 602.34L386.65 602.34Z" />
	<path id="Shape 42" class="shp1" d="M197.45 526.49L183.57 524.38L177.35 511.19C177 510.4 176.55 510 176 510C175.45 510 175 510.4 174.65 511.19L168.43 524.38L154.55 526.49C153.52 526.67 153 527.11 153 527.83C153 528.23 153.23 528.7 153.69 529.22L163.75 539.48L161.38 553.97C161.34 554.24 161.32 554.43 161.32 554.55C161.32 554.96 161.42 555.3 161.61 555.58C161.8 555.86 162.09 556 162.48 556C162.81 556 163.18 555.88 163.59 555.65L176 548.81L188.41 555.65C188.8 555.88 189.17 556 189.52 556C189.89 556 190.17 555.86 190.36 555.58C190.55 555.3 190.65 554.96 190.65 554.55C190.65 554.3 190.64 554.11 190.62 553.97L188.25 539.48L198.28 529.22C198.76 528.72 199 528.25 199 527.83C199 527.11 198.48 526.67 197.45 526.49L197.45 526.49Z" />
	<path id="Shape 43" class="shp2" d="M346.89 443.83L336.93 442.31L332.47 432.85C332.22 432.28 331.9 432 331.5 432C331.1 432 330.78 432.28 330.53 432.85L326.07 442.31L316.11 443.83C315.37 443.96 315 444.28 315 444.79C315 445.08 315.17 445.41 315.5 445.79L322.71 453.15L321.01 463.54C320.98 463.74 320.97 463.88 320.97 463.96C320.97 464.25 321.04 464.5 321.18 464.7C321.32 464.9 321.52 465 321.8 465C322.04 465 322.3 464.92 322.6 464.75L331.5 459.84L340.4 464.75C340.68 464.92 340.95 465 341.2 465C341.46 465 341.66 464.9 341.8 464.7C341.94 464.5 342.01 464.25 342.01 463.96C342.01 463.78 342 463.64 341.99 463.54L340.29 453.15L347.48 445.79C347.83 445.43 348 445.09 348 444.79C348 444.28 347.63 443.96 346.89 443.83L346.89 443.83Z" />
</svg>