<svg version="1.2" baseProfile="tiny-ps" xmlns="http://www.w3.org/2000/svg" viewBox="0 0 80 80" width="80" height="80">
	<title>New Project</title>
	<style>
		tspan { white-space:pre }
		.shp0 { fill: #86e3ff } 
	</style>
	<path id="Shape 1" class="shp0" d="M73.54 28.89L51.52 25.44L41.65 3.94C41.09 2.65 40.38 2 39.5 2C38.62 2 37.91 2.65 37.35 3.94L27.48 25.44L5.46 28.89C3.82 29.17 3 29.9 3 31.06C3 31.73 3.37 32.48 4.1 33.33L20.07 50.06L16.29 73.69C16.23 74.13 16.2 74.45 16.2 74.64C16.2 75.3 16.36 75.86 16.67 76.31C16.97 76.77 17.43 77 18.05 77C18.57 77 19.16 76.81 19.8 76.43L39.5 65.28L59.2 76.43C59.81 76.81 60.4 77 60.95 77C61.54 77 61.98 76.77 62.29 76.31C62.6 75.86 62.75 75.3 62.75 74.64C62.75 74.23 62.74 73.91 62.71 73.69L58.93 50.06L74.86 33.33C75.62 32.51 76 31.76 76 31.06C76 29.9 75.18 29.17 73.54 28.89L73.54 28.89Z" />
</svg>